{
  "header": {
    "PPQ": 1000,
    "bpm": 140.00014000014,
    "timeSignature": [
      4,
      4
    ],
    "name": ""
  },
  "tempo": [
    {
      "absoluteTime": 0,
      "seconds": 0,
      "bpm": 140.00014000014
    }
  ],
  "timeSignature": [
    {
      "absoluteTime": 0,
      "seconds": 0,
      "numerator": 4,
      "denominator": 2,
      "click": 24,
      "notesQ": 8
    }
  ],
  "startTime": 0,
  "duration": 56.46422925000015,
  "tracks": [
    {
      "startTime": 0,
      "duration": 0,
      "length": 0,
      "notes": [],
      "controlChanges": {},
      "id": 0
    },
    {
      "startTime": 3.4285680000000003,
      "duration": 56.46422925000015,
      "length": 301,
      "notes": [
        {
          "name": "D4",
          "midi": 62,
          "time": 3.4285680000000003,
          "velocity": 1,
          "duration": 0.2142854999999999
        },
        {
          "name": "F#4",
          "midi": 66,
          "time": 3.4285680000000003,
          "velocity": 1,
          "duration": 0.2142854999999999
        },
        {
          "name": "C4",
          "midi": 60,
          "time": 3.6428535,
          "velocity": 1,
          "duration": 0.2142854999999999
        },
        {
          "name": "F#4",
          "midi": 66,
          "time": 3.857139,
          "velocity": 1,
          "duration": 0.2142854999999999
        },
        {
          "name": "D4",
          "midi": 62,
          "time": 3.857139,
          "velocity": 1,
          "duration": 0.2142854999999999
        },
        {
          "name": "D4",
          "midi": 62,
          "time": 4.0714245,
          "velocity": 1,
          "duration": 0.1071427500000004
        },
        {
          "name": "D4",
          "midi": 62,
          "time": 4.17856725,
          "velocity": 1,
          "duration": 0.3214282500000003
        },
        {
          "name": "C4",
          "midi": 60,
          "time": 4.17856725,
          "velocity": 1,
          "duration": 0.3214282500000003
        },
        {
          "name": "C4",
          "midi": 60,
          "time": 4.499995500000001,
          "velocity": 1,
          "duration": 0.2142854999999999
        },
        {
          "name": "C4",
          "midi": 60,
          "time": 4.714281000000001,
          "velocity": 1,
          "duration": 0.2142854999999999
        },
        {
          "name": "E4",
          "midi": 64,
          "time": 4.9285665000000005,
          "velocity": 1,
          "duration": 0.2142854999999999
        },
        {
          "name": "D4",
          "midi": 62,
          "time": 4.9285665000000005,
          "velocity": 1,
          "duration": 0.2142854999999999
        },
        {
          "name": "C4",
          "midi": 60,
          "time": 5.142852,
          "velocity": 1,
          "duration": 0.2142854999999999
        },
        {
          "name": "D4",
          "midi": 62,
          "time": 5.3571375,
          "velocity": 1,
          "duration": 0.2142854999999999
        },
        {
          "name": "E4",
          "midi": 64,
          "time": 5.3571375,
          "velocity": 1,
          "duration": 0.2142854999999999
        },
        {
          "name": "C4",
          "midi": 60,
          "time": 5.571423,
          "velocity": 1,
          "duration": 0.2142854999999999
        },
        {
          "name": "D4",
          "midi": 62,
          "time": 5.7857085,
          "velocity": 1,
          "duration": 0.2142854999999999
        },
        {
          "name": "E4",
          "midi": 64,
          "time": 5.7857085,
          "velocity": 1,
          "duration": 0.2142854999999999
        },
        {
          "name": "C4",
          "midi": 60,
          "time": 5.999994,
          "velocity": 1,
          "duration": 0.2142854999999999
        },
        {
          "name": "F#4",
          "midi": 66,
          "time": 6.2142795,
          "velocity": 1,
          "duration": 0.2142854999999999
        },
        {
          "name": "D4",
          "midi": 62,
          "time": 6.428565,
          "velocity": 1,
          "duration": 0.2142854999999999
        },
        {
          "name": "E4",
          "midi": 64,
          "time": 6.428565,
          "velocity": 1,
          "duration": 0.2142854999999999
        },
        {
          "name": "E4",
          "midi": 64,
          "time": 6.6428505,
          "velocity": 1,
          "duration": 0.2142854999999999
        },
        {
          "name": "D4",
          "midi": 62,
          "time": 6.6428505,
          "velocity": 1,
          "duration": 0.2142854999999999
        },
        {
          "name": "F#4",
          "midi": 66,
          "time": 6.857136,
          "velocity": 1,
          "duration": 0.2142854999999999
        },
        {
          "name": "D4",
          "midi": 62,
          "time": 6.857136,
          "velocity": 1,
          "duration": 0.2142854999999999
        },
        {
          "name": "C4",
          "midi": 60,
          "time": 7.0714215,
          "velocity": 1,
          "duration": 0.2142854999999999
        },
        {
          "name": "D4",
          "midi": 62,
          "time": 7.2857069999999995,
          "velocity": 1,
          "duration": 0.2142854999999999
        },
        {
          "name": "F#4",
          "midi": 66,
          "time": 7.2857069999999995,
          "velocity": 1,
          "duration": 0.2142854999999999
        },
        {
          "name": "D4",
          "midi": 62,
          "time": 7.499992499999999,
          "velocity": 1,
          "duration": 0.1071427500000004
        },
        {
          "name": "D4",
          "midi": 62,
          "time": 7.60713525,
          "velocity": 1,
          "duration": 0.3214282500000003
        },
        {
          "name": "C4",
          "midi": 60,
          "time": 7.60713525,
          "velocity": 1,
          "duration": 0.3214282500000003
        },
        {
          "name": "C4",
          "midi": 60,
          "time": 7.9285635,
          "velocity": 1,
          "duration": 0.2142854999999999
        },
        {
          "name": "C4",
          "midi": 60,
          "time": 8.142849,
          "velocity": 1,
          "duration": 0.2142855000000008
        },
        {
          "name": "D4",
          "midi": 62,
          "time": 8.3571345,
          "velocity": 1,
          "duration": 0.2142855000000008
        },
        {
          "name": "E4",
          "midi": 64,
          "time": 8.3571345,
          "velocity": 1,
          "duration": 0.2142855000000008
        },
        {
          "name": "C4",
          "midi": 60,
          "time": 8.571420000000002,
          "velocity": 1,
          "duration": 0.2142855000000008
        },
        {
          "name": "F#4",
          "midi": 66,
          "time": 8.785705500000002,
          "velocity": 1,
          "duration": 0.2142855000000008
        },
        {
          "name": "E4",
          "midi": 64,
          "time": 8.999991000000003,
          "velocity": 1,
          "duration": 0.2142855000000008
        },
        {
          "name": "D4",
          "midi": 62,
          "time": 9.214276500000004,
          "velocity": 1,
          "duration": 0.2142855000000008
        },
        {
          "name": "C4",
          "midi": 60,
          "time": 9.428562000000005,
          "velocity": 1,
          "duration": 0.2142855000000008
        },
        {
          "name": "F#4",
          "midi": 66,
          "time": 9.642847500000006,
          "velocity": 1,
          "duration": 0.2142855000000008
        },
        {
          "name": "E4",
          "midi": 64,
          "time": 9.857133000000006,
          "velocity": 1,
          "duration": 0.2142855000000008
        },
        {
          "name": "D4",
          "midi": 62,
          "time": 10.071418500000007,
          "velocity": 1,
          "duration": 0.2142855000000008
        },
        {
          "name": "D4",
          "midi": 62,
          "time": 10.285704000000008,
          "velocity": 1,
          "duration": 0.2142855000000008
        },
        {
          "name": "F#4",
          "midi": 66,
          "time": 10.285704000000008,
          "velocity": 1,
          "duration": 0.2142855000000008
        },
        {
          "name": "C4",
          "midi": 60,
          "time": 10.499989500000009,
          "velocity": 1,
          "duration": 0.2142855000000008
        },
        {
          "name": "F#4",
          "midi": 66,
          "time": 10.71427500000001,
          "velocity": 1,
          "duration": 0.2142855000000008
        },
        {
          "name": "D4",
          "midi": 62,
          "time": 10.71427500000001,
          "velocity": 1,
          "duration": 0.2142855000000008
        },
        {
          "name": "E4",
          "midi": 64,
          "time": 10.92856050000001,
          "velocity": 1,
          "duration": 0.2142855000000008
        },
        {
          "name": "D4",
          "midi": 62,
          "time": 10.92856050000001,
          "velocity": 1,
          "duration": 0.2142855000000008
        },
        {
          "name": "C4",
          "midi": 60,
          "time": 11.142846000000011,
          "velocity": 1,
          "duration": 0.2142855000000008
        },
        {
          "name": "D4",
          "midi": 62,
          "time": 11.142846000000011,
          "velocity": 1,
          "duration": 0.2142855000000008
        },
        {
          "name": "C4",
          "midi": 60,
          "time": 11.357131500000012,
          "velocity": 1,
          "duration": 0.2142855000000008
        },
        {
          "name": "C4",
          "midi": 60,
          "time": 11.571417000000013,
          "velocity": 1,
          "duration": 0.2142855000000008
        },
        {
          "name": "E4",
          "midi": 64,
          "time": 11.785702500000014,
          "velocity": 1,
          "duration": 0.2142855000000008
        },
        {
          "name": "D4",
          "midi": 62,
          "time": 11.785702500000014,
          "velocity": 1,
          "duration": 0.2142855000000008
        },
        {
          "name": "C4",
          "midi": 60,
          "time": 11.999988000000014,
          "velocity": 1,
          "duration": 0.2142855000000008
        },
        {
          "name": "E4",
          "midi": 64,
          "time": 12.214273500000015,
          "velocity": 1,
          "duration": 0.2142855000000008
        },
        {
          "name": "D4",
          "midi": 62,
          "time": 12.214273500000015,
          "velocity": 1,
          "duration": 0.2142855000000008
        },
        {
          "name": "C4",
          "midi": 60,
          "time": 12.428559000000016,
          "velocity": 1,
          "duration": 0.2142855000000008
        },
        {
          "name": "E4",
          "midi": 64,
          "time": 12.642844500000017,
          "velocity": 1,
          "duration": 0.2142855000000008
        },
        {
          "name": "D4",
          "midi": 62,
          "time": 12.642844500000017,
          "velocity": 1,
          "duration": 0.2142855000000008
        },
        {
          "name": "C4",
          "midi": 60,
          "time": 12.857130000000017,
          "velocity": 1,
          "duration": 0.2142855000000008
        },
        {
          "name": "D4",
          "midi": 62,
          "time": 13.071415500000018,
          "velocity": 1,
          "duration": 0.2142855000000008
        },
        {
          "name": "F#4",
          "midi": 66,
          "time": 13.071415500000018,
          "velocity": 1,
          "duration": 0.2142855000000008
        },
        {
          "name": "C4",
          "midi": 60,
          "time": 13.285701000000019,
          "velocity": 1,
          "duration": 0.2142855000000008
        },
        {
          "name": "D4",
          "midi": 62,
          "time": 13.285701000000019,
          "velocity": 1,
          "duration": 0.2142855000000008
        },
        {
          "name": "C4",
          "midi": 60,
          "time": 13.49998650000002,
          "velocity": 1,
          "duration": 0.2142855000000008
        },
        {
          "name": "D4",
          "midi": 62,
          "time": 13.49998650000002,
          "velocity": 1,
          "duration": 0.2142855000000008
        },
        {
          "name": "D4",
          "midi": 62,
          "time": 13.71427200000002,
          "velocity": 1,
          "duration": 0.2142855000000008
        },
        {
          "name": "F#4",
          "midi": 66,
          "time": 13.71427200000002,
          "velocity": 1,
          "duration": 0.2142855000000008
        },
        {
          "name": "C4",
          "midi": 60,
          "time": 13.928557500000021,
          "velocity": 1,
          "duration": 0.2142855000000008
        },
        {
          "name": "F#4",
          "midi": 66,
          "time": 14.142843000000022,
          "velocity": 1,
          "duration": 0.2142855000000008
        },
        {
          "name": "D4",
          "midi": 62,
          "time": 14.142843000000022,
          "velocity": 1,
          "duration": 0.2142855000000008
        },
        {
          "name": "E4",
          "midi": 64,
          "time": 14.357128500000023,
          "velocity": 1,
          "duration": 0.2142855000000008
        },
        {
          "name": "D4",
          "midi": 62,
          "time": 14.357128500000023,
          "velocity": 1,
          "duration": 0.2142855000000008
        },
        {
          "name": "C4",
          "midi": 60,
          "time": 14.571414000000024,
          "velocity": 1,
          "duration": 0.2142855000000008
        },
        {
          "name": "D4",
          "midi": 62,
          "time": 14.571414000000024,
          "velocity": 1,
          "duration": 0.2142855000000008
        },
        {
          "name": "C4",
          "midi": 60,
          "time": 14.785699500000025,
          "velocity": 1,
          "duration": 0.2142855000000008
        },
        {
          "name": "C4",
          "midi": 60,
          "time": 14.999985000000025,
          "velocity": 1,
          "duration": 0.2142855000000008
        },
        {
          "name": "E4",
          "midi": 64,
          "time": 15.214270500000026,
          "velocity": 1,
          "duration": 0.2142855000000008
        },
        {
          "name": "D4",
          "midi": 62,
          "time": 15.214270500000026,
          "velocity": 1,
          "duration": 0.2142855000000008
        },
        {
          "name": "C4",
          "midi": 60,
          "time": 15.428556000000027,
          "velocity": 1,
          "duration": 0.2142855000000008
        },
        {
          "name": "F#4",
          "midi": 66,
          "time": 15.642841500000028,
          "velocity": 1,
          "duration": 0.2142855000000008
        },
        {
          "name": "E4",
          "midi": 64,
          "time": 15.857127000000029,
          "velocity": 1,
          "duration": 0.2142855000000008
        },
        {
          "name": "D4",
          "midi": 62,
          "time": 16.07141250000003,
          "velocity": 1,
          "duration": 0.21428549999999902
        },
        {
          "name": "C4",
          "midi": 60,
          "time": 16.28569800000003,
          "velocity": 1,
          "duration": 0.21428549999999902
        },
        {
          "name": "F#4",
          "midi": 66,
          "time": 16.499983500000027,
          "velocity": 1,
          "duration": 0.21428549999999902
        },
        {
          "name": "E4",
          "midi": 64,
          "time": 16.714269000000026,
          "velocity": 1,
          "duration": 0.21428549999999902
        },
        {
          "name": "D4",
          "midi": 62,
          "time": 16.928554500000025,
          "velocity": 1,
          "duration": 0.21428549999999902
        },
        {
          "name": "E4",
          "midi": 64,
          "time": 17.142840000000025,
          "velocity": 1,
          "duration": 0.21428549999999902
        },
        {
          "name": "C4",
          "midi": 60,
          "time": 17.357125500000024,
          "velocity": 1,
          "duration": 0.21428549999999902
        },
        {
          "name": "E4",
          "midi": 64,
          "time": 17.571411000000023,
          "velocity": 1,
          "duration": 0.21428549999999902
        },
        {
          "name": "F#4",
          "midi": 66,
          "time": 17.78569650000002,
          "velocity": 1,
          "duration": 0.21428549999999902
        },
        {
          "name": "C4",
          "midi": 60,
          "time": 17.99998200000002,
          "velocity": 1,
          "duration": 0.21428549999999902
        },
        {
          "name": "C4",
          "midi": 60,
          "time": 18.21426750000002,
          "velocity": 1,
          "duration": 0.21428549999999902
        },
        {
          "name": "E4",
          "midi": 64,
          "time": 18.42855300000002,
          "velocity": 1,
          "duration": 0.21428549999999902
        },
        {
          "name": "C4",
          "midi": 60,
          "time": 18.642838500000018,
          "velocity": 1,
          "duration": 0.21428549999999902
        },
        {
          "name": "D4",
          "midi": 62,
          "time": 18.857124000000017,
          "velocity": 1,
          "duration": 0.21428549999999902
        },
        {
          "name": "C4",
          "midi": 60,
          "time": 19.071409500000016,
          "velocity": 1,
          "duration": 0.21428549999999902
        },
        {
          "name": "D4",
          "midi": 62,
          "time": 19.285695000000015,
          "velocity": 1,
          "duration": 0.21428549999999902
        },
        {
          "name": "C4",
          "midi": 60,
          "time": 19.499980500000014,
          "velocity": 1,
          "duration": 0.21428549999999902
        },
        {
          "name": "D4",
          "midi": 62,
          "time": 19.714266000000013,
          "velocity": 1,
          "duration": 0.21428549999999902
        },
        {
          "name": "C4",
          "midi": 60,
          "time": 19.92855150000001,
          "velocity": 1,
          "duration": 0.21428549999999902
        },
        {
          "name": "D4",
          "midi": 62,
          "time": 20.14283700000001,
          "velocity": 1,
          "duration": 0.21428549999999902
        },
        {
          "name": "C4",
          "midi": 60,
          "time": 20.35712250000001,
          "velocity": 1,
          "duration": 0.21428549999999902
        },
        {
          "name": "E4",
          "midi": 64,
          "time": 20.57140800000001,
          "velocity": 1,
          "duration": 0.21428549999999902
        },
        {
          "name": "C4",
          "midi": 60,
          "time": 20.785693500000008,
          "velocity": 1,
          "duration": 0.21428549999999902
        },
        {
          "name": "E4",
          "midi": 64,
          "time": 20.999979000000007,
          "velocity": 1,
          "duration": 0.21428549999999902
        },
        {
          "name": "F#4",
          "midi": 66,
          "time": 21.214264500000006,
          "velocity": 1,
          "duration": 0.21428549999999902
        },
        {
          "name": "C4",
          "midi": 60,
          "time": 21.428550000000005,
          "velocity": 1,
          "duration": 0.21428549999999902
        },
        {
          "name": "C4",
          "midi": 60,
          "time": 21.642835500000004,
          "velocity": 1,
          "duration": 0.21428549999999902
        },
        {
          "name": "E4",
          "midi": 64,
          "time": 21.857121000000003,
          "velocity": 1,
          "duration": 0.21428549999999902
        },
        {
          "name": "C4",
          "midi": 60,
          "time": 22.071406500000002,
          "velocity": 1,
          "duration": 0.21428549999999902
        },
        {
          "name": "D4",
          "midi": 62,
          "time": 22.285692,
          "velocity": 1,
          "duration": 0.21428549999999902
        },
        {
          "name": "C4",
          "midi": 60,
          "time": 22.4999775,
          "velocity": 1,
          "duration": 0.21428549999999902
        },
        {
          "name": "D4",
          "midi": 62,
          "time": 22.714263,
          "velocity": 1,
          "duration": 0.21428549999999902
        },
        {
          "name": "C4",
          "midi": 60,
          "time": 22.928548499999998,
          "velocity": 1,
          "duration": 0.21428549999999902
        },
        {
          "name": "D4",
          "midi": 62,
          "time": 23.142833999999997,
          "velocity": 1,
          "duration": 0.21428549999999902
        },
        {
          "name": "C4",
          "midi": 60,
          "time": 23.357119499999996,
          "velocity": 1,
          "duration": 0.21428549999999902
        },
        {
          "name": "D4",
          "midi": 62,
          "time": 23.571404999999995,
          "velocity": 1,
          "duration": 0.21428549999999902
        },
        {
          "name": "C4",
          "midi": 60,
          "time": 23.785690499999994,
          "velocity": 1,
          "duration": 0.21428549999999902
        },
        {
          "name": "D4",
          "midi": 62,
          "time": 23.999975999999993,
          "velocity": 1,
          "duration": 0.21428549999999902
        },
        {
          "name": "F#4",
          "midi": 66,
          "time": 23.999975999999993,
          "velocity": 1,
          "duration": 0.21428549999999902
        },
        {
          "name": "C4",
          "midi": 60,
          "time": 24.214261499999992,
          "velocity": 1,
          "duration": 0.21428549999999902
        },
        {
          "name": "C4",
          "midi": 60,
          "time": 24.42854699999999,
          "velocity": 1,
          "duration": 0.21428549999999902
        },
        {
          "name": "C4",
          "midi": 60,
          "time": 24.64283249999999,
          "velocity": 1,
          "duration": 0.21428549999999902
        },
        {
          "name": "D4",
          "midi": 62,
          "time": 24.85711799999999,
          "velocity": 1,
          "duration": 0.21428549999999902
        },
        {
          "name": "E4",
          "midi": 64,
          "time": 24.85711799999999,
          "velocity": 1,
          "duration": 0.21428549999999902
        },
        {
          "name": "C4",
          "midi": 60,
          "time": 25.071403499999988,
          "velocity": 1,
          "duration": 0.21428549999999902
        },
        {
          "name": "C4",
          "midi": 60,
          "time": 25.285688999999987,
          "velocity": 1,
          "duration": 0.21428549999999902
        },
        {
          "name": "C4",
          "midi": 60,
          "time": 25.499974499999986,
          "velocity": 1,
          "duration": 0.21428549999999902
        },
        {
          "name": "C4",
          "midi": 60,
          "time": 25.714259999999985,
          "velocity": 1,
          "duration": 0.21428549999999902
        },
        {
          "name": "C4",
          "midi": 60,
          "time": 25.928545499999984,
          "velocity": 1,
          "duration": 0.21428549999999902
        },
        {
          "name": "C4",
          "midi": 60,
          "time": 26.142830999999983,
          "velocity": 1,
          "duration": 0.21428549999999902
        },
        {
          "name": "C4",
          "midi": 60,
          "time": 26.357116499999982,
          "velocity": 1,
          "duration": 0.21428549999999902
        },
        {
          "name": "C4",
          "midi": 60,
          "time": 26.57140199999998,
          "velocity": 1,
          "duration": 0.21428549999999902
        },
        {
          "name": "E4",
          "midi": 64,
          "time": 26.78568749999998,
          "velocity": 1,
          "duration": 0.21428549999999902
        },
        {
          "name": "F#4",
          "midi": 66,
          "time": 26.78568749999998,
          "velocity": 1,
          "duration": 0.21428549999999902
        },
        {
          "name": "D4",
          "midi": 62,
          "time": 26.99997299999998,
          "velocity": 1,
          "duration": 0.4285710000000016
        },
        {
          "name": "E4",
          "midi": 64,
          "time": 26.99997299999998,
          "velocity": 1,
          "duration": 0.4285710000000016
        },
        {
          "name": "F#4",
          "midi": 66,
          "time": 27.42854399999998,
          "velocity": 1,
          "duration": 0.21428549999999902
        },
        {
          "name": "D4",
          "midi": 62,
          "time": 27.42854399999998,
          "velocity": 1,
          "duration": 0.21428549999999902
        },
        {
          "name": "C4",
          "midi": 60,
          "time": 27.64282949999998,
          "velocity": 1,
          "duration": 0.21428549999999902
        },
        {
          "name": "C4",
          "midi": 60,
          "time": 27.85711499999998,
          "velocity": 1,
          "duration": 0.21428549999999902
        },
        {
          "name": "C4",
          "midi": 60,
          "time": 28.071400499999978,
          "velocity": 1,
          "duration": 0.21428549999999902
        },
        {
          "name": "E4",
          "midi": 64,
          "time": 28.285685999999977,
          "velocity": 1,
          "duration": 0.21428549999999902
        },
        {
          "name": "D4",
          "midi": 62,
          "time": 28.285685999999977,
          "velocity": 1,
          "duration": 0.21428549999999902
        },
        {
          "name": "C4",
          "midi": 60,
          "time": 28.499971499999976,
          "velocity": 1,
          "duration": 0.21428549999999902
        },
        {
          "name": "C4",
          "midi": 60,
          "time": 28.714256999999975,
          "velocity": 1,
          "duration": 0.21428549999999902
        },
        {
          "name": "C4",
          "midi": 60,
          "time": 28.928542499999974,
          "velocity": 1,
          "duration": 0.21428549999999902
        },
        {
          "name": "C4",
          "midi": 60,
          "time": 29.142827999999973,
          "velocity": 1,
          "duration": 0.21428549999999902
        },
        {
          "name": "C4",
          "midi": 60,
          "time": 29.357113499999972,
          "velocity": 1,
          "duration": 0.21428549999999902
        },
        {
          "name": "C4",
          "midi": 60,
          "time": 29.57139899999997,
          "velocity": 1,
          "duration": 0.21428549999999902
        },
        {
          "name": "C4",
          "midi": 60,
          "time": 29.78568449999997,
          "velocity": 1,
          "duration": 0.21428549999999902
        },
        {
          "name": "C4",
          "midi": 60,
          "time": 29.99996999999997,
          "velocity": 1,
          "duration": 0.21428549999999902
        },
        {
          "name": "C4",
          "midi": 60,
          "time": 30.214255499999968,
          "velocity": 1,
          "duration": 0.21428549999999902
        },
        {
          "name": "C4",
          "midi": 60,
          "time": 30.428540999999967,
          "velocity": 1,
          "duration": 0.21428549999999902
        },
        {
          "name": "C4",
          "midi": 60,
          "time": 30.642826499999966,
          "velocity": 1,
          "duration": 0.21428549999999902
        },
        {
          "name": "F#4",
          "midi": 66,
          "time": 30.857111999999965,
          "velocity": 1,
          "duration": 0.21428549999999902
        },
        {
          "name": "D4",
          "midi": 62,
          "time": 30.857111999999965,
          "velocity": 1,
          "duration": 0.21428549999999902
        },
        {
          "name": "C4",
          "midi": 60,
          "time": 31.071397499999964,
          "velocity": 1,
          "duration": 0.21428549999999902
        },
        {
          "name": "C4",
          "midi": 60,
          "time": 31.285682999999963,
          "velocity": 1,
          "duration": 0.21428549999999902
        },
        {
          "name": "C4",
          "midi": 60,
          "time": 31.499968499999962,
          "velocity": 1,
          "duration": 0.21428549999999902
        },
        {
          "name": "E4",
          "midi": 64,
          "time": 31.71425399999996,
          "velocity": 1,
          "duration": 0.21428549999999902
        },
        {
          "name": "D4",
          "midi": 62,
          "time": 31.71425399999996,
          "velocity": 1,
          "duration": 0.21428549999999902
        },
        {
          "name": "C4",
          "midi": 60,
          "time": 31.92853949999996,
          "velocity": 1,
          "duration": 0.21428549999999902
        },
        {
          "name": "C4",
          "midi": 60,
          "time": 32.14282499999996,
          "velocity": 1,
          "duration": 0.21428550000000257
        },
        {
          "name": "C4",
          "midi": 60,
          "time": 32.35711049999996,
          "velocity": 1,
          "duration": 0.21428550000000257
        },
        {
          "name": "C4",
          "midi": 60,
          "time": 32.571395999999964,
          "velocity": 1,
          "duration": 0.21428550000000257
        },
        {
          "name": "C4",
          "midi": 60,
          "time": 32.78568149999997,
          "velocity": 1,
          "duration": 0.21428550000000257
        },
        {
          "name": "C4",
          "midi": 60,
          "time": 32.99996699999997,
          "velocity": 1,
          "duration": 0.21428550000000257
        },
        {
          "name": "C4",
          "midi": 60,
          "time": 33.21425249999997,
          "velocity": 1,
          "duration": 0.21428550000000257
        },
        {
          "name": "C4",
          "midi": 60,
          "time": 33.428537999999975,
          "velocity": 1,
          "duration": 0.21428550000000257
        },
        {
          "name": "E4",
          "midi": 64,
          "time": 33.64282349999998,
          "velocity": 1,
          "duration": 0.21428550000000257
        },
        {
          "name": "F#4",
          "midi": 66,
          "time": 33.64282349999998,
          "velocity": 1,
          "duration": 0.21428550000000257
        },
        {
          "name": "E4",
          "midi": 64,
          "time": 33.85710899999998,
          "velocity": 1,
          "duration": 0.42857099999999804
        },
        {
          "name": "D4",
          "midi": 62,
          "time": 33.85710899999998,
          "velocity": 1,
          "duration": 0.42857099999999804
        },
        {
          "name": "D4",
          "midi": 62,
          "time": 34.28567999999998,
          "velocity": 1,
          "duration": 0.21428550000000257
        },
        {
          "name": "F#4",
          "midi": 66,
          "time": 34.28567999999998,
          "velocity": 1,
          "duration": 0.21428550000000257
        },
        {
          "name": "C4",
          "midi": 60,
          "time": 34.49996549999998,
          "velocity": 1,
          "duration": 0.21428550000000257
        },
        {
          "name": "C4",
          "midi": 60,
          "time": 34.71425099999998,
          "velocity": 1,
          "duration": 0.21428550000000257
        },
        {
          "name": "C4",
          "midi": 60,
          "time": 34.928536499999986,
          "velocity": 1,
          "duration": 0.21428550000000257
        },
        {
          "name": "E4",
          "midi": 64,
          "time": 35.14282199999999,
          "velocity": 1,
          "duration": 0.21428550000000257
        },
        {
          "name": "D4",
          "midi": 62,
          "time": 35.14282199999999,
          "velocity": 1,
          "duration": 0.21428550000000257
        },
        {
          "name": "C4",
          "midi": 60,
          "time": 35.35710749999999,
          "velocity": 1,
          "duration": 0.21428550000000257
        },
        {
          "name": "C4",
          "midi": 60,
          "time": 35.57139299999999,
          "velocity": 1,
          "duration": 0.21428550000000257
        },
        {
          "name": "C4",
          "midi": 60,
          "time": 35.785678499999996,
          "velocity": 1,
          "duration": 0.21428550000000257
        },
        {
          "name": "C4",
          "midi": 60,
          "time": 35.999964,
          "velocity": 1,
          "duration": 0.21428550000000257
        },
        {
          "name": "C4",
          "midi": 60,
          "time": 36.2142495,
          "velocity": 1,
          "duration": 0.21428550000000257
        },
        {
          "name": "C4",
          "midi": 60,
          "time": 36.428535000000004,
          "velocity": 1,
          "duration": 0.21428550000000257
        },
        {
          "name": "C4",
          "midi": 60,
          "time": 36.642820500000006,
          "velocity": 1,
          "duration": 0.21428550000000257
        },
        {
          "name": "C4",
          "midi": 60,
          "time": 36.85710600000001,
          "velocity": 1,
          "duration": 0.21428550000000257
        },
        {
          "name": "C4",
          "midi": 60,
          "time": 37.07139150000001,
          "velocity": 1,
          "duration": 0.21428550000000257
        },
        {
          "name": "C4",
          "midi": 60,
          "time": 37.285677000000014,
          "velocity": 1,
          "duration": 0.21428550000000257
        },
        {
          "name": "C4",
          "midi": 60,
          "time": 37.49996250000002,
          "velocity": 1,
          "duration": 0.21428550000000257
        },
        {
          "name": "D4",
          "midi": 62,
          "time": 37.71424800000002,
          "velocity": 1,
          "duration": 0.21428550000000257
        },
        {
          "name": "E4",
          "midi": 64,
          "time": 37.71424800000002,
          "velocity": 1,
          "duration": 0.21428550000000257
        },
        {
          "name": "D4",
          "midi": 62,
          "time": 38.142819000000024,
          "velocity": 1,
          "duration": 0.21428550000000257
        },
        {
          "name": "E4",
          "midi": 64,
          "time": 38.142819000000024,
          "velocity": 1,
          "duration": 0.21428550000000257
        },
        {
          "name": "D4",
          "midi": 62,
          "time": 38.57139000000003,
          "velocity": 1,
          "duration": 0.21428550000000257
        },
        {
          "name": "E4",
          "midi": 64,
          "time": 38.57139000000003,
          "velocity": 1,
          "duration": 0.21428550000000257
        },
        {
          "name": "F#4",
          "midi": 66,
          "time": 38.78567550000003,
          "velocity": 1,
          "duration": 0.21428550000000257
        },
        {
          "name": "E4",
          "midi": 64,
          "time": 38.78567550000003,
          "velocity": 1,
          "duration": 0.21428550000000257
        },
        {
          "name": "D4",
          "midi": 62,
          "time": 38.999961000000035,
          "velocity": 1,
          "duration": 0.21428550000000257
        },
        {
          "name": "E4",
          "midi": 64,
          "time": 38.999961000000035,
          "velocity": 1,
          "duration": 0.21428550000000257
        },
        {
          "name": "E4",
          "midi": 64,
          "time": 39.21424650000004,
          "velocity": 1,
          "duration": 0.21428550000000257
        },
        {
          "name": "F#4",
          "midi": 66,
          "time": 39.21424650000004,
          "velocity": 1,
          "duration": 0.21428550000000257
        },
        {
          "name": "E4",
          "midi": 64,
          "time": 39.42853200000004,
          "velocity": 1,
          "duration": 0.21428550000000257
        },
        {
          "name": "D4",
          "midi": 62,
          "time": 39.42853200000004,
          "velocity": 1,
          "duration": 0.21428550000000257
        },
        {
          "name": "D4",
          "midi": 62,
          "time": 39.857103000000045,
          "velocity": 1,
          "duration": 0.21428550000000257
        },
        {
          "name": "E4",
          "midi": 64,
          "time": 39.857103000000045,
          "velocity": 1,
          "duration": 0.21428550000000257
        },
        {
          "name": "D4",
          "midi": 62,
          "time": 40.17853125000005,
          "velocity": 1,
          "duration": 0.10714275000000129
        },
        {
          "name": "D4",
          "midi": 62,
          "time": 40.28567400000005,
          "velocity": 1,
          "duration": 0.21428550000000257
        },
        {
          "name": "D4",
          "midi": 62,
          "time": 40.49995950000005,
          "velocity": 1,
          "duration": 0.21428550000000257
        },
        {
          "name": "D4",
          "midi": 62,
          "time": 40.714245000000055,
          "velocity": 1,
          "duration": 0.21428550000000257
        },
        {
          "name": "D4",
          "midi": 62,
          "time": 40.92853050000006,
          "velocity": 1,
          "duration": 0.21428550000000257
        },
        {
          "name": "D4",
          "midi": 62,
          "time": 41.14281600000006,
          "velocity": 1,
          "duration": 0.21428550000000257
        },
        {
          "name": "E4",
          "midi": 64,
          "time": 41.14281600000006,
          "velocity": 1,
          "duration": 0.21428550000000257
        },
        {
          "name": "E4",
          "midi": 64,
          "time": 41.571387000000065,
          "velocity": 1,
          "duration": 0.21428550000000257
        },
        {
          "name": "D4",
          "midi": 62,
          "time": 41.571387000000065,
          "velocity": 1,
          "duration": 0.21428550000000257
        },
        {
          "name": "E4",
          "midi": 64,
          "time": 41.99995800000007,
          "velocity": 1,
          "duration": 0.21428550000000257
        },
        {
          "name": "D4",
          "midi": 62,
          "time": 41.99995800000007,
          "velocity": 1,
          "duration": 0.21428550000000257
        },
        {
          "name": "F#4",
          "midi": 66,
          "time": 42.21424350000007,
          "velocity": 1,
          "duration": 0.21428550000000257
        },
        {
          "name": "E4",
          "midi": 64,
          "time": 42.21424350000007,
          "velocity": 1,
          "duration": 0.21428550000000257
        },
        {
          "name": "E4",
          "midi": 64,
          "time": 42.428529000000076,
          "velocity": 1,
          "duration": 0.21428550000000257
        },
        {
          "name": "D4",
          "midi": 62,
          "time": 42.428529000000076,
          "velocity": 1,
          "duration": 0.21428550000000257
        },
        {
          "name": "F#4",
          "midi": 66,
          "time": 42.64281450000008,
          "velocity": 1,
          "duration": 0.21428550000000257
        },
        {
          "name": "E4",
          "midi": 64,
          "time": 42.64281450000008,
          "velocity": 1,
          "duration": 0.21428550000000257
        },
        {
          "name": "F#4",
          "midi": 66,
          "time": 43.07138550000008,
          "velocity": 1,
          "duration": 0.21428550000000257
        },
        {
          "name": "E4",
          "midi": 64,
          "time": 43.07138550000008,
          "velocity": 1,
          "duration": 0.21428550000000257
        },
        {
          "name": "E4",
          "midi": 64,
          "time": 43.49995650000009,
          "velocity": 1,
          "duration": 0.21428550000000257
        },
        {
          "name": "D4",
          "midi": 62,
          "time": 43.49995650000009,
          "velocity": 1,
          "duration": 0.21428550000000257
        },
        {
          "name": "C4",
          "midi": 60,
          "time": 43.928527500000094,
          "velocity": 1,
          "duration": 0.21428550000000257
        },
        {
          "name": "D4",
          "midi": 62,
          "time": 43.928527500000094,
          "velocity": 1,
          "duration": 0.21428550000000257
        },
        {
          "name": "D4",
          "midi": 62,
          "time": 44.142813000000096,
          "velocity": 1,
          "duration": 0.21428550000000257
        },
        {
          "name": "D4",
          "midi": 62,
          "time": 44.3570985000001,
          "velocity": 1,
          "duration": 0.21428550000000257
        },
        {
          "name": "C4",
          "midi": 60,
          "time": 44.5713840000001,
          "velocity": 1,
          "duration": 0.42857099999999804
        },
        {
          "name": "D4",
          "midi": 62,
          "time": 44.5713840000001,
          "velocity": 1,
          "duration": 0.42857099999999804
        },
        {
          "name": "D4",
          "midi": 62,
          "time": 44.9999550000001,
          "velocity": 1,
          "duration": 0.42857099999999804
        },
        {
          "name": "C4",
          "midi": 60,
          "time": 44.9999550000001,
          "velocity": 1,
          "duration": 0.42857099999999804
        },
        {
          "name": "D4",
          "midi": 62,
          "time": 45.5356687500001,
          "velocity": 1,
          "duration": 0.10714275000000129
        },
        {
          "name": "E4",
          "midi": 64,
          "time": 45.6428115000001,
          "velocity": 1,
          "duration": 0.10714275000000129
        },
        {
          "name": "E4",
          "midi": 64,
          "time": 45.7499542500001,
          "velocity": 1,
          "duration": 0.10714275000000129
        },
        {
          "name": "E4",
          "midi": 64,
          "time": 45.8570970000001,
          "velocity": 1,
          "duration": 0.10714275000000129
        },
        {
          "name": "E4",
          "midi": 64,
          "time": 45.964239750000104,
          "velocity": 1,
          "duration": 0.10714275000000129
        },
        {
          "name": "E4",
          "midi": 64,
          "time": 46.071382500000105,
          "velocity": 1,
          "duration": 0.10714275000000129
        },
        {
          "name": "D4",
          "midi": 62,
          "time": 46.39281075000011,
          "velocity": 1,
          "duration": 0.32142824999999675
        },
        {
          "name": "C4",
          "midi": 60,
          "time": 46.39281075000011,
          "velocity": 1,
          "duration": 0.32142824999999675
        },
        {
          "name": "C4",
          "midi": 60,
          "time": 46.714239000000106,
          "velocity": 1,
          "duration": 0.42857099999999804
        },
        {
          "name": "C4",
          "midi": 60,
          "time": 47.249952750000105,
          "velocity": 1,
          "duration": 0.10714275000000129
        },
        {
          "name": "D4",
          "midi": 62,
          "time": 47.357095500000106,
          "velocity": 1,
          "duration": 0.10714275000000129
        },
        {
          "name": "D#4",
          "midi": 63,
          "time": 47.57138100000011,
          "velocity": 1,
          "duration": 0.10714275000000129
        },
        {
          "name": "D#4",
          "midi": 63,
          "time": 47.67852375000011,
          "velocity": 1,
          "duration": 0.10714275000000129
        },
        {
          "name": "C4",
          "midi": 60,
          "time": 47.78566650000011,
          "velocity": 1,
          "duration": 0.10714275000000129
        },
        {
          "name": "C4",
          "midi": 60,
          "time": 47.999952000000114,
          "velocity": 1,
          "duration": 0.42857099999999804
        },
        {
          "name": "D4",
          "midi": 62,
          "time": 47.999952000000114,
          "velocity": 1,
          "duration": 0.42857099999999804
        },
        {
          "name": "D4",
          "midi": 62,
          "time": 48.42852300000011,
          "velocity": 1,
          "duration": 0.42857099999999804
        },
        {
          "name": "C4",
          "midi": 60,
          "time": 48.42852300000011,
          "velocity": 1,
          "duration": 0.42857099999999804
        },
        {
          "name": "E4",
          "midi": 64,
          "time": 48.96423675000011,
          "velocity": 1,
          "duration": 0.10714275000000129
        },
        {
          "name": "F#4",
          "midi": 66,
          "time": 49.07137950000011,
          "velocity": 1,
          "duration": 0.10714275000000129
        },
        {
          "name": "F#4",
          "midi": 66,
          "time": 49.178522250000114,
          "velocity": 1,
          "duration": 0.10714275000000129
        },
        {
          "name": "F#4",
          "midi": 66,
          "time": 49.285665000000115,
          "velocity": 1,
          "duration": 0.10714275000000129
        },
        {
          "name": "F#4",
          "midi": 66,
          "time": 49.39280775000012,
          "velocity": 1,
          "duration": 0.10714275000000129
        },
        {
          "name": "F#4",
          "midi": 66,
          "time": 49.49995050000012,
          "velocity": 1,
          "duration": 0.10714275000000129
        },
        {
          "name": "F#4",
          "midi": 66,
          "time": 49.928521500000116,
          "velocity": 1,
          "duration": 0.21428550000000257
        },
        {
          "name": "E4",
          "midi": 64,
          "time": 49.928521500000116,
          "velocity": 1,
          "duration": 0.21428550000000257
        },
        {
          "name": "E4",
          "midi": 64,
          "time": 50.35709250000012,
          "velocity": 1,
          "duration": 0.21428550000000257
        },
        {
          "name": "D4",
          "midi": 62,
          "time": 50.35709250000012,
          "velocity": 1,
          "duration": 0.21428550000000257
        },
        {
          "name": "C4",
          "midi": 60,
          "time": 50.571378000000124,
          "velocity": 1,
          "duration": 0.21428550000000257
        },
        {
          "name": "D4",
          "midi": 62,
          "time": 50.785663500000126,
          "velocity": 1,
          "duration": 0.21428550000000257
        },
        {
          "name": "E4",
          "midi": 64,
          "time": 50.99994900000013,
          "velocity": 1,
          "duration": 0.21428550000000257
        },
        {
          "name": "D4",
          "midi": 62,
          "time": 51.21423450000013,
          "velocity": 1,
          "duration": 0.21428550000000257
        },
        {
          "name": "C4",
          "midi": 60,
          "time": 51.428520000000134,
          "velocity": 1,
          "duration": 0.42857099999999804
        },
        {
          "name": "D4",
          "midi": 62,
          "time": 51.428520000000134,
          "velocity": 1,
          "duration": 0.42857099999999804
        },
        {
          "name": "D4",
          "midi": 62,
          "time": 51.85709100000013,
          "velocity": 1,
          "duration": 0.42857099999999804
        },
        {
          "name": "C4",
          "midi": 60,
          "time": 51.85709100000013,
          "velocity": 1,
          "duration": 0.42857099999999804
        },
        {
          "name": "D4",
          "midi": 62,
          "time": 52.39280475000013,
          "velocity": 1,
          "duration": 0.10714275000000129
        },
        {
          "name": "E4",
          "midi": 64,
          "time": 52.49994750000013,
          "velocity": 1,
          "duration": 0.10714275000000129
        },
        {
          "name": "E4",
          "midi": 64,
          "time": 52.607090250000134,
          "velocity": 1,
          "duration": 0.10714275000000129
        },
        {
          "name": "E4",
          "midi": 64,
          "time": 52.714233000000135,
          "velocity": 1,
          "duration": 0.10714275000000129
        },
        {
          "name": "E4",
          "midi": 64,
          "time": 52.821375750000136,
          "velocity": 1,
          "duration": 0.10714275000000129
        },
        {
          "name": "E4",
          "midi": 64,
          "time": 52.92851850000014,
          "velocity": 1,
          "duration": 0.10714275000000129
        },
        {
          "name": "D4",
          "midi": 62,
          "time": 53.24994675000014,
          "velocity": 1,
          "duration": 0.32142824999999675
        },
        {
          "name": "C4",
          "midi": 60,
          "time": 53.24994675000014,
          "velocity": 1,
          "duration": 0.32142824999999675
        },
        {
          "name": "C4",
          "midi": 60,
          "time": 53.57137500000014,
          "velocity": 1,
          "duration": 0.42857099999999804
        },
        {
          "name": "C4",
          "midi": 60,
          "time": 53.999946000000136,
          "velocity": 1,
          "duration": 0.21428550000000257
        },
        {
          "name": "D4",
          "midi": 62,
          "time": 54.21423150000014,
          "velocity": 1,
          "duration": 0.21428550000000257
        },
        {
          "name": "E4",
          "midi": 64,
          "time": 54.42851700000014,
          "velocity": 1,
          "duration": 0.21428550000000257
        },
        {
          "name": "D4",
          "midi": 62,
          "time": 54.642802500000144,
          "velocity": 1,
          "duration": 0.21428550000000257
        },
        {
          "name": "D4",
          "midi": 62,
          "time": 54.85708800000015,
          "velocity": 1,
          "duration": 0.42857099999999804
        },
        {
          "name": "C4",
          "midi": 60,
          "time": 54.85708800000015,
          "velocity": 1,
          "duration": 0.42857099999999804
        },
        {
          "name": "D4",
          "midi": 62,
          "time": 55.285659000000145,
          "velocity": 1,
          "duration": 0.42857099999999804
        },
        {
          "name": "C4",
          "midi": 60,
          "time": 55.285659000000145,
          "velocity": 1,
          "duration": 0.42857099999999804
        },
        {
          "name": "E4",
          "midi": 64,
          "time": 55.821372750000144,
          "velocity": 1,
          "duration": 0.10714275000000129
        },
        {
          "name": "F#4",
          "midi": 66,
          "time": 55.928515500000145,
          "velocity": 1,
          "duration": 0.10714275000000129
        },
        {
          "name": "F#4",
          "midi": 66,
          "time": 56.03565825000015,
          "velocity": 1,
          "duration": 0.10714275000000129
        },
        {
          "name": "F#4",
          "midi": 66,
          "time": 56.14280100000015,
          "velocity": 1,
          "duration": 0.10714275000000129
        },
        {
          "name": "F#4",
          "midi": 66,
          "time": 56.24994375000015,
          "velocity": 1,
          "duration": 0.10714275000000129
        },
        {
          "name": "F#4",
          "midi": 66,
          "time": 56.35708650000015,
          "velocity": 1,
          "duration": 0.10714275000000129
        }
      ],
      "controlChanges": {},
      "id": 1,
      "name": "Acoustic Piano",
      "instrumentNumber": 0,
      "instrument": "acoustic grand piano",
      "instrumentFamily": "piano",
      "channelNumber": 0,
      "isPercussion": false
    }
  ]
}